<svg version="1.1" id="Layer_1" xmlns="http://www.w3.org/2000/svg" xmlns:xlink="http://www.w3.org/1999/xlink" x="0px" y="0px"
	 width="100%" viewBox="0 0 1500 1500" enable-background="new 0 0 1500 1500" xml:space="preserve">
<path fill="#FF5757" opacity="1.000000" stroke="none" 
	d="
M701.000000,1501.000000 
	C467.333374,1501.000000 234.166748,1501.000000 1.000094,1501.000000 
	C1.000063,1001.000122 1.000063,501.000275 1.000031,1.000295 
	C500.999786,1.000197 1000.999573,1.000197 1500.999512,1.000098 
	C1500.999756,500.999664 1500.999756,1000.999329 1500.999878,1500.999512 
	C1234.500000,1501.000000 968.000000,1501.000000 701.000000,1501.000000 
M722.203430,529.859558 
	C717.415771,529.267334 712.630432,528.183960 707.840149,528.162048 
	C675.353394,528.013306 642.861572,527.776672 610.379761,528.205627 
	C590.096497,528.473511 572.844116,536.729919 558.970703,551.456116 
	C545.229492,566.041870 538.391052,583.499146 538.833496,603.667603 
	C538.903564,606.860291 538.843384,610.055908 538.843384,614.247009 
	C508.474152,600.662781 479.434998,587.673462 450.395813,574.684143 
	C450.913361,576.372375 451.897064,577.210693 452.901398,578.023438 
	C480.221252,600.132019 507.505035,622.285645 534.920593,644.274963 
	C537.841125,646.617432 538.969360,648.999695 538.925110,652.695862 
	C538.747864,667.521118 538.650818,682.354248 538.932190,697.176758 
	C539.676208,736.378479 572.541748,768.676025 611.757080,768.806946 
	C643.411316,768.912659 675.066101,768.842102 706.720642,768.833740 
	C721.335693,768.829895 734.625061,764.384033 746.621033,756.253662 
	C764.849609,743.899231 775.221985,726.453064 779.809326,705.000977 
	C784.924133,705.647156 790.036011,706.824646 795.154236,706.852661 
	C826.642334,707.025269 858.135803,707.253967 889.619934,706.859192 
	C930.566223,706.345825 962.757202,673.463379 963.057556,632.475952 
	C963.083984,628.865295 963.060974,625.254333 963.060974,620.643127 
	C992.138428,633.661377 1020.360779,646.296814 1048.583252,658.932312 
	C1049.022095,658.413635 1049.460938,657.895020 1049.899902,657.376343 
	C1047.982422,655.907349 1046.030151,654.481506 1044.152832,652.962952 
	C1018.250916,632.012024 992.386963,611.014038 966.420898,590.142883 
	C963.946716,588.154175 962.984985,586.106506 963.017395,582.968994 
	C963.160156,569.141907 963.171997,555.311523 963.041992,541.484070 
	C962.635132,498.208557 930.465820,466.185974 887.163269,466.023651 
	C857.340576,465.911865 827.516785,465.911041 797.694092,466.027985 
	C759.274536,466.178650 729.056152,492.125580 722.203430,529.859558 
M477.410278,934.009033 
	C479.240356,933.956909 481.081451,934.015625 482.898743,933.834900 
	C496.253387,932.507629 503.530548,924.424438 501.998932,912.671875 
	C501.151978,906.172791 496.919769,902.208618 491.130493,899.217834 
	C492.040375,898.399719 492.481750,897.942017 492.982269,897.562195 
	C498.740356,893.192078 500.848816,887.385986 499.451477,880.391479 
	C498.050995,873.381226 493.318512,868.769043 486.619354,868.105225 
	C474.326752,866.887207 461.914703,866.874451 449.596619,866.361084 
	C449.596619,889.628662 449.596619,911.676880 449.596619,934.009705 
	C458.807587,934.009705 467.620636,934.009705 477.410278,934.009033 
M249.192215,872.756775 
	C249.192215,893.006531 249.192215,913.256348 249.192215,933.539307 
	C260.234222,933.539307 270.733734,934.295715 281.073914,933.335693 
	C292.396118,932.284546 300.344910,925.545227 304.261932,914.719299 
	C307.719330,905.163574 307.716248,895.431580 304.219482,885.881042 
	C300.778107,876.481689 294.184937,869.582520 284.282410,868.213501 
	C272.860870,866.634399 261.189484,866.862305 249.192413,866.284607 
	C249.192413,868.869873 249.192413,870.348938 249.192215,872.756775 
M747.032104,923.469238 
	C747.032104,926.887512 747.032104,930.305786 747.032104,934.009094 
	C755.581177,934.009094 763.380615,933.942627 771.178528,934.024231 
	C783.938904,934.157776 794.862427,930.152039 800.458984,918.084778 
	C806.603271,904.836548 806.740845,891.077087 797.867981,878.805786 
	C794.849060,874.630676 789.895020,871.006470 785.051758,869.165527 
	C772.820068,864.516296 759.924011,867.565796 747.032104,866.751587 
	C747.032104,885.914124 747.032104,904.195312 747.032104,923.469238 
M314.678375,902.252441 
	C315.145477,905.707153 315.215424,909.273682 316.150940,912.596497 
	C319.542969,924.644592 326.964386,932.721741 339.742004,934.794250 
	C352.832520,936.917480 364.602234,931.972961 370.634491,921.248962 
	C377.499176,909.045044 377.816650,896.135559 372.531219,883.255432 
	C368.157806,872.597778 359.964905,866.759399 348.443512,865.843079 
	C336.596832,864.900879 326.755951,868.521362 320.161804,878.925598 
	C315.826996,885.765015 314.495392,893.402344 314.678375,902.252441 
M987.215942,934.993774 
	C998.885925,933.733582 1006.963867,927.640076 1011.326050,916.782776 
	C1015.535217,906.306274 1015.505371,895.605957 1011.818726,885.063293 
	C1008.688354,876.111511 1002.682800,869.729858 993.301208,866.961975 
	C973.817688,861.213745 957.084229,872.088257 953.690613,892.915649 
	C950.220642,914.211304 960.552002,936.877258 987.215942,934.993774 
M1136.591797,899.869446 
	C1142.197998,883.206055 1134.984985,869.466614 1118.481445,867.468506 
	C1108.498535,866.259888 1098.249878,867.245972 1087.826172,867.245972 
	C1087.826172,889.385498 1087.826172,911.471436 1087.826172,933.615051 
	C1092.983765,933.615051 1097.863281,933.615051 1103.105957,933.615051 
	C1103.105957,926.611145 1103.105957,919.993286 1103.105957,913.517883 
	C1107.435425,911.957947 1109.919067,913.371643 1111.894775,917.031616 
	C1114.500366,921.858337 1117.544312,926.455139 1120.538574,931.060608 
	C1121.284180,932.207214 1122.517578,933.772095 1123.603638,933.836060 
	C1128.634399,934.131897 1133.692383,933.966797 1139.627441,933.966797 
	C1134.525269,925.765564 1129.993774,918.481750 1126.008179,912.075317 
	C1129.768799,907.834167 1133.000732,904.189148 1136.591797,899.869446 
M437.465210,914.779968 
	C437.465210,898.904907 437.465210,883.029846 437.465210,867.090820 
	C432.459137,867.090820 427.690643,867.090820 422.412903,867.090820 
	C422.412903,869.661499 422.426514,871.955383 422.410645,874.249023 
	C422.323029,886.898376 422.477081,899.556519 422.028748,912.193237 
	C421.811310,918.321716 417.329742,921.931702 411.462158,921.955505 
	C405.607483,921.979248 401.494873,918.368713 400.898071,912.187500 
	C400.499451,908.058533 400.593567,903.876160 400.579224,899.717224 
	C400.541992,888.935547 400.566742,878.153687 400.566742,867.089661 
	C395.147369,867.089661 390.241058,867.089661 385.014191,867.089661 
	C385.014191,881.651550 384.844604,895.955200 385.062561,910.252991 
	C385.274506,924.156250 393.870514,933.604004 406.989136,934.913269 
	C423.302094,936.541321 433.810822,929.844116 437.465210,914.779968 
M1060.996704,898.487793 
	C1060.725464,903.783569 1060.959473,909.169128 1060.039429,914.349670 
	C1059.138550,919.422302 1054.908325,922.020935 1049.736328,921.941833 
	C1044.745972,921.865479 1041.139893,919.308960 1039.859863,914.401062 
	C1039.200073,911.870667 1039.048584,909.153564 1039.032715,906.518555 
	C1038.953979,893.417786 1038.996704,880.316284 1038.996704,867.144104 
	C1033.559082,867.144104 1028.634644,867.144104 1023.906189,867.144104 
	C1023.906189,883.100159 1023.805237,898.719788 1024.007446,914.335571 
	C1024.040283,916.881592 1025.104980,919.555359 1026.219360,921.922180 
	C1031.126709,932.345398 1043.854248,937.432068 1057.025269,934.428467 
	C1068.575684,931.794495 1075.355835,924.287415 1076.046509,912.546997 
	C1076.534668,904.252502 1076.369507,895.917786 1076.433228,887.600586 
	C1076.485107,880.832520 1076.443726,874.063721 1076.443726,867.190674 
	C1070.984863,867.190674 1066.122192,867.190674 1060.996704,867.190674 
	C1060.996704,877.544861 1060.996704,887.518433 1060.996704,898.487793 
M1201.531128,908.499756 
	C1201.531128,916.913147 1201.531128,925.326538 1201.531128,933.745667 
	C1217.446777,933.745667 1232.544067,933.745667 1247.864624,933.745667 
	C1247.864624,929.446167 1247.864624,925.409119 1247.864624,920.840576 
	C1237.457153,920.840576 1227.383545,920.840576 1217.234863,920.840576 
	C1217.234863,915.413696 1217.234863,910.526855 1217.234863,905.098145 
	C1226.163696,905.098145 1234.741699,905.098145 1243.543213,905.098145 
	C1243.543213,900.822083 1243.543213,897.096436 1243.543213,892.838623 
	C1234.659546,892.838623 1226.078125,892.838623 1217.265381,892.838623 
	C1217.265381,888.284485 1217.265381,884.267883 1217.265381,879.679688 
	C1227.540405,879.679688 1237.428711,879.679688 1247.374512,879.679688 
	C1247.374512,875.178772 1247.374512,871.259827 1247.374512,867.210693 
	C1232.016235,867.210693 1216.987671,867.210693 1201.531494,867.210693 
	C1201.531494,880.897766 1201.531494,894.198730 1201.531128,908.499756 
M562.531128,918.493591 
	C562.531128,923.577759 562.531128,928.661987 562.531128,933.745239 
	C578.447815,933.745239 593.545166,933.745239 608.864075,933.745239 
	C608.864075,929.445190 608.864075,925.408081 608.864075,920.839539 
	C598.455933,920.839539 588.382263,920.839539 578.235535,920.839539 
	C578.235535,915.410156 578.235535,910.524170 578.235535,905.096802 
	C587.165222,905.096802 595.743103,905.096802 604.542480,905.096802 
	C604.542480,900.820435 604.542480,897.094727 604.542480,892.837036 
	C595.657898,892.837036 587.076416,892.837036 578.266357,892.837036 
	C578.266357,888.282898 578.266357,884.266235 578.266357,879.677795 
	C588.541809,879.677795 598.431213,879.677795 608.373657,879.677795 
	C608.373657,875.178467 608.373657,871.258362 608.373657,867.212097 
	C593.014648,867.212097 577.986023,867.212097 562.531494,867.212097 
	C562.531494,884.232117 562.531494,900.864136 562.531128,918.493591 
M655.616394,915.978882 
	C653.568970,921.822449 651.521484,927.666077 649.301147,934.003235 
	C654.339966,934.003235 658.502808,934.201538 662.625183,933.880920 
	C663.843018,933.786255 665.518250,932.468567 666.012695,931.300293 
	C669.971375,921.945862 669.899963,921.915710 680.133545,921.915710 
	C681.798279,921.915710 683.463074,921.915649 685.127808,921.915710 
	C693.363525,921.915833 693.274048,921.947449 695.993713,929.650391 
	C696.563721,931.264832 697.939087,933.659302 699.152039,933.792358 
	C703.664795,934.287598 708.264587,933.989990 713.385925,933.989990 
	C712.561401,931.513245 712.020447,929.795471 711.419983,928.098816 
	C705.539978,911.485840 699.647766,894.877197 693.763733,878.265625 
	C689.619019,866.564575 689.622864,866.665649 676.951416,866.741943 
	C673.955627,866.759949 672.606567,867.713135 671.631531,870.554382 
	C666.505188,885.492065 661.153870,900.352539 655.616394,915.978882 
M1173.223999,909.307983 
	C1174.284912,911.877502 1176.690552,914.887451 1176.033203,916.894287 
	C1175.360107,918.949646 1171.842529,920.443909 1169.276855,921.386047 
	C1167.382080,922.081909 1164.958984,921.810242 1162.872803,921.422974 
	C1157.250977,920.379395 1151.683594,919.043396 1145.723755,917.742493 
	C1145.333618,921.276306 1144.814941,924.877441 1144.625977,928.495728 
	C1144.581421,929.349060 1145.450562,930.765564 1146.231689,931.069641 
	C1158.894287,935.999512 1171.798828,938.108643 1184.211548,930.926331 
	C1196.022461,924.092224 1196.365234,907.751892 1185.098511,900.058533 
	C1181.726685,897.756165 1177.650635,896.482849 1173.891235,894.750977 
	C1170.584229,893.227478 1166.961670,892.141785 1164.084839,890.034851 
	C1162.611572,888.955994 1161.669312,885.940369 1161.966797,884.030579 
	C1162.214355,882.441650 1164.409790,880.460388 1166.124756,879.957947 
	C1168.736938,879.192749 1171.751221,879.106018 1174.465210,879.540283 
	C1178.848267,880.241516 1183.126099,881.600769 1187.958618,882.809814 
	C1188.423706,879.795959 1188.635864,876.656799 1189.441895,873.678162 
	C1190.304199,870.490845 1189.196167,868.716248 1186.202515,868.364990 
	C1178.667114,867.480713 1171.035522,865.854370 1163.565063,866.354370 
	C1153.208374,867.047485 1146.287476,874.216431 1145.189819,883.112549 
	C1144.052856,892.327637 1148.428223,898.944397 1158.696045,903.326111 
	C1163.274414,905.279846 1167.929565,907.053467 1173.223999,909.307983 
M856.842651,885.413208 
	C857.869873,880.492188 860.039429,878.666809 866.288452,879.260376 
	C871.949463,879.798096 877.512390,881.366943 883.312500,882.519714 
	C883.830322,879.195374 884.633484,875.925842 884.706055,872.640198 
	C884.734863,871.338623 883.427063,869.256775 882.239258,868.799683 
	C873.667969,865.500488 864.784668,864.562561 855.809448,866.871582 
	C846.457458,869.277466 841.193909,875.356262 840.330750,884.200867 
	C839.550720,892.193665 843.806763,898.792236 852.653198,902.774292 
	C856.735718,904.611938 861.066345,905.890930 865.202515,907.619324 
	C869.024597,909.216370 872.717773,911.361023 871.812866,916.320435 
	C870.864258,921.519958 866.259399,921.297729 862.329346,921.709778 
	C861.024231,921.846619 859.644409,921.749695 858.355896,921.483276 
	C852.702881,920.314270 847.070740,919.044006 841.012695,917.718994 
	C840.673096,920.802979 840.064636,924.239685 840.037048,927.681030 
	C840.027039,928.934204 841.113586,930.918274 842.187439,931.346680 
	C853.157166,935.723267 864.428528,937.127502 875.742798,932.903137 
	C883.180298,930.126160 887.732605,924.652710 888.284607,916.456970 
	C888.835999,908.272400 885.230225,902.220947 878.034607,898.583618 
	C873.608459,896.346191 868.629517,895.174011 864.285889,892.811768 
	C861.460266,891.274963 859.330933,888.458008 856.842651,885.413208 
M939.125732,883.085205 
	C940.133728,882.787537 941.735474,882.781860 942.049744,882.142944 
	C943.641785,878.907166 944.899414,875.506775 946.228638,872.274963 
	C930.969177,861.163696 909.330872,864.167542 900.560425,878.991516 
	C892.407776,892.771118 892.322388,907.413574 900.359070,921.264587 
	C909.360718,936.778931 934.663147,940.365112 946.568420,928.274902 
	C944.977966,924.548645 943.361267,920.760864 941.726501,916.930664 
	C938.287476,918.228027 935.292725,919.677856 932.134033,920.489136 
	C922.782654,922.891113 914.539246,918.968262 912.648621,909.951904 
	C911.333557,903.680237 911.486023,896.716187 912.710388,890.396179 
	C914.168152,882.871765 920.304749,879.136475 928.014282,879.836731 
	C931.553467,880.158264 934.978333,881.739563 939.125732,883.085205 
M527.404846,891.500183 
	C527.404846,883.413696 527.404846,875.327209 527.404846,867.135559 
	C521.853882,867.135559 517.114868,867.135559 512.197876,867.135559 
	C512.197876,889.491211 512.197876,911.535217 512.197876,933.602600 
	C526.566040,933.602600 540.603882,933.602600 554.654663,933.602600 
	C554.654663,929.263611 554.654663,925.328552 554.654663,920.652344 
	C545.545654,920.652344 536.688599,920.652344 527.404968,920.652344 
	C527.404968,910.773682 527.404968,901.636963 527.404846,891.500183 
M830.279541,921.489502 
	C830.279541,903.406311 830.279541,885.323120 830.279541,867.166565 
	C824.778442,867.166565 820.047058,867.166565 815.229248,867.166565 
	C815.229248,889.553101 815.229248,911.596436 815.229248,933.687378 
	C820.335449,933.687378 825.080017,933.687378 830.279602,933.687378 
	C830.279602,929.751221 830.279602,926.117371 830.279541,921.489502 
M569.172668,986.460754 
	C570.908142,992.296997 572.643616,998.133301 574.324524,1003.786011 
	C577.189697,1003.786011 579.476013,1003.786011 581.861694,1003.786011 
	C583.024902,999.449280 584.136353,995.305847 585.247742,991.162415 
	C585.527527,991.125549 585.807312,991.088745 586.087097,991.051941 
	C587.250061,995.273010 588.413086,999.494080 589.539917,1003.583984 
	C597.063965,1004.512268 597.057678,1004.510437 599.000427,997.721130 
	C599.915833,994.522217 600.899536,991.342468 601.781860,988.134644 
	C602.719543,984.725159 603.573914,981.292786 604.456299,977.902344 
	C598.999939,976.442749 596.048950,977.463745 595.558838,982.986206 
	C595.290833,986.006226 594.096375,988.944092 593.319641,991.919067 
	C591.343567,988.082520 590.687439,984.204712 589.359314,980.572571 
	C588.860596,979.208557 586.862793,977.715881 585.433899,977.590881 
	C584.362000,977.497131 582.490845,979.289734 582.049255,980.603455 
	C580.741577,984.493591 579.966003,988.562561 578.805115,993.282104 
	C578.251465,992.037964 577.992981,991.625427 577.880249,991.176331 
	C577.191528,988.433289 576.525391,985.684448 575.871033,982.932983 
	C574.401978,976.755432 574.105896,976.579773 566.886353,978.086365 
	C567.592468,980.629639 568.292358,983.150513 569.172668,986.460754 
M913.033752,977.026978 
	C908.729736,977.679443 905.151367,979.560669 904.697998,984.238159 
	C904.239685,988.965759 906.956543,993.701477 904.773865,998.586121 
	C904.311035,999.621948 905.671387,1001.421509 905.275391,1002.546814 
	C903.182190,1008.494507 904.427795,1011.366028 910.532288,1012.383667 
	C913.565308,1012.889221 916.846558,1012.720398 919.890503,1012.168091 
	C925.354797,1011.176514 928.235596,1007.802673 927.906128,1003.605286 
	C927.578064,999.425781 924.313171,997.202759 918.305542,996.965271 
	C916.192871,996.881714 914.087219,996.618713 912.944580,996.520569 
	C916.823364,994.474609 922.316833,993.250549 924.695923,989.848450 
	C927.046143,986.487732 926.248352,980.925476 926.749451,976.976379 
	C921.709106,976.976379 917.808167,976.976379 913.033752,977.026978 
M778.098267,974.702209 
	C778.098267,984.307129 778.098267,993.911987 778.098267,1003.833252 
	C782.086243,1003.833252 785.645752,1003.260803 788.924744,1003.975403 
	C793.203247,1004.907837 796.982056,1004.835632 799.897217,1001.449646 
	C804.219849,996.429016 804.267761,990.466797 802.520020,984.479004 
	C801.320251,980.368408 798.562378,977.517151 794.066589,977.074646 
	C792.466553,976.917175 790.789917,977.318237 789.174988,977.611450 
	C788.161560,977.795471 787.197815,978.253174 785.579285,978.802856 
	C785.579285,975.141907 785.579285,972.064941 785.579285,968.895264 
	C782.835632,968.895264 780.612793,968.895264 778.098389,968.895264 
	C778.098389,970.795654 778.098389,972.282227 778.098267,974.702209 
M655.339905,984.198914 
	C656.010254,986.295227 657.114319,988.361877 657.260498,990.494141 
	C657.561584,994.886475 657.351013,999.313965 657.351013,1003.765991 
	C660.284668,1003.765991 662.382385,1003.765991 664.825073,1003.765991 
	C664.825073,997.227356 665.239990,990.909912 664.709717,984.672913 
	C664.167175,978.291443 658.703186,975.402649 652.632263,977.644043 
	C651.592651,978.027771 650.600647,978.540588 648.928223,979.288086 
	C648.928223,975.466614 648.928223,972.241272 648.928223,968.522400 
	C645.904846,969.284912 641.688477,966.159058 641.471008,971.202148 
	C641.006897,981.963562 641.328979,992.758911 641.328979,1003.700012 
	C644.126526,1003.700012 646.346313,1003.700012 648.979797,1003.700012 
	C648.979797,998.915344 648.965027,994.449341 648.984436,989.983521 
	C649.000427,986.318298 650.311523,983.809753 655.339905,984.198914 
M707.839478,974.315247 
	C706.974609,973.303040 706.310913,971.863892 705.212891,971.346436 
	C696.633484,967.303223 686.987305,971.127686 683.803040,979.680664 
	C679.910583,990.136047 684.492432,1001.435730 693.723206,1003.967957 
	C698.930359,1005.396362 703.821106,1004.828857 708.454834,1001.251221 
	C707.580505,999.275269 706.806274,997.525696 705.991150,995.683594 
	C700.958679,997.248474 696.189636,999.253601 692.491638,994.190979 
	C690.074219,990.881531 690.131104,983.155029 692.596497,979.928162 
	C696.404541,974.943909 701.122131,977.167725 705.764709,978.768066 
	C706.432617,977.375061 706.997681,976.196472 707.839478,974.315247 
M871.160583,994.583618 
	C871.132263,991.921631 871.225647,989.251648 871.050842,986.599304 
	C870.664978,980.745422 867.413513,977.311462 861.590881,977.087158 
	C858.219055,976.957214 854.817932,977.588257 850.949463,977.917786 
	C851.381226,980.510254 851.665527,982.217407 851.946960,983.907043 
	C856.217773,984.352783 861.449890,980.635132 863.558411,987.705139 
	C860.228333,987.999817 857.245972,987.980103 854.394531,988.581299 
	C849.867493,989.535828 848.249329,992.820312 848.721130,997.178040 
	C849.193237,1001.538879 851.637939,1004.476807 856.086243,1004.518311 
	C860.983215,1004.564087 865.887329,1003.838440 871.160400,1003.419312 
	C871.160400,1000.810974 871.160400,998.161865 871.160583,994.583618 
M732.713318,1003.641174 
	C732.861633,999.165527 732.723083,994.658264 733.211975,990.220154 
	C734.701172,976.700256 722.018250,974.283508 713.074951,979.205627 
	C713.363708,980.704529 713.669617,982.292236 713.966370,983.832581 
	C724.407837,983.339539 724.407837,983.339539 724.864441,987.816223 
	C722.069702,988.040222 719.212219,987.967407 716.497620,988.554810 
	C711.999207,989.528015 710.071838,992.824463 710.753174,997.573303 
	C711.387634,1001.995300 714.681885,1004.822937 718.983398,1004.612427 
	C723.280334,1004.402161 727.576111,1004.170166 732.713318,1003.641174 
M883.757812,992.660645 
	C883.758545,991.994202 883.778015,991.327087 883.757019,990.661377 
	C883.647095,987.183411 884.316467,983.923157 888.577942,984.027405 
	C892.819275,984.131104 891.991760,987.774292 892.049744,990.475403 
	C892.144836,994.905273 892.075500,999.338684 892.075500,1003.779663 
	C894.960999,1003.779663 897.076050,1003.779663 899.484192,1003.779663 
	C899.484192,997.258972 899.976379,990.929443 899.351562,984.712036 
	C898.671143,977.941895 893.302734,975.378235 886.873108,977.833191 
	C885.787231,978.247803 884.397156,977.924561 883.152832,977.852478 
	C880.936951,977.724243 878.725098,977.527405 876.464478,977.355713 
	C876.464478,986.679443 876.464478,995.228699 876.464478,1003.753357 
	C878.980957,1003.753357 881.088318,1003.753357 883.073669,1003.753357 
	C883.338440,1003.187439 883.589661,1002.895020 883.597290,1002.596436 
	C883.673645,999.600891 883.710022,996.604309 883.757812,992.660645 
M760.095703,993.039856 
	C762.594238,993.035461 765.092712,993.030457 767.591248,993.026733 
	C773.763428,993.017517 775.112915,991.220093 773.455688,985.214233 
	C772.095825,980.285828 768.421814,977.262939 763.370911,977.012878 
	C758.274780,976.760681 754.128052,978.575012 751.791809,983.246521 
	C748.974609,988.879883 749.090149,994.610840 752.842285,999.785950 
	C756.142822,1004.338135 760.978333,1005.208923 766.260193,1004.204712 
	C771.785828,1003.154358 772.224548,1002.071655 769.404175,997.448120 
	C766.771301,997.640991 764.280762,998.180115 761.882202,997.908142 
	C758.943298,997.574707 758.236877,995.905518 760.095703,993.039856 
M820.861572,975.708130 
	C824.821777,984.682556 831.141174,992.919189 828.823242,1003.754517 
	C831.837402,1003.754517 834.079407,1003.754517 837.099976,1003.754517 
	C834.270996,990.876709 843.573425,981.720825 846.803284,970.749939 
	C841.096741,969.082153 837.861450,970.772034 836.480042,976.268921 
	C835.842529,978.805969 834.358215,981.130188 832.811462,984.532837 
	C831.160278,980.682068 829.700439,978.189270 829.018982,975.499268 
	C827.579102,969.814880 823.901550,969.539978 818.825928,970.762878 
	C819.461548,972.357544 819.990845,973.685608 820.861572,975.708130 
M645.063171,917.953247 
	C645.850891,914.235535 646.638611,910.517822 647.527466,906.322998 
	C635.862915,906.322998 625.594177,906.322998 614.984741,906.322998 
	C614.984741,910.147644 614.984741,913.894287 614.984741,917.997131 
	C624.848267,917.997131 634.492493,917.997131 645.063171,917.953247 
M627.928040,971.798828 
	C625.203735,974.598022 622.381531,977.313110 619.840637,980.269836 
	C619.352356,980.838074 619.797363,982.409058 620.112610,983.424072 
	C620.727295,985.403320 621.907715,987.262390 622.215271,989.269104 
	C622.740173,992.694702 622.306885,996.310486 623.126648,999.636780 
	C624.220459,1004.075195 630.613892,1006.308777 635.150452,1003.720764 
	C636.437805,1002.986267 636.480591,1000.070312 637.237427,997.707581 
	C629.516663,998.031311 628.284973,994.726013 630.624268,984.141663 
	C632.536133,983.931335 634.469727,983.718567 636.621704,983.481750 
	C636.621704,981.476807 636.621704,979.733276 636.621704,977.799500 
	C634.328552,977.465820 632.259521,977.164673 630.743713,976.944092 
	C629.909302,974.924255 629.273926,973.386169 627.928040,971.798828 
M741.640320,1004.027649 
	C743.035461,1003.903564 744.430603,1003.779541 745.650452,1003.671021 
	C745.650452,991.723083 745.650452,980.347900 745.650452,969.034485 
	C738.389038,967.844543 738.315125,967.901611 738.311584,974.748413 
	C738.307190,983.045654 738.193970,991.346069 738.421387,999.637085 
	C738.461975,1001.116821 739.929871,1002.557434 741.640320,1004.027649 
M608.059753,1000.236572 
	C608.018494,1007.022827 612.630127,1002.955994 615.362915,1003.822021 
	C615.362915,994.813782 615.362915,986.280396 615.362915,977.331421 
	C612.694153,977.461060 610.489746,977.568176 608.058350,977.686279 
	C608.058350,985.319336 608.058350,992.305176 608.059753,1000.236572 
M613.204773,974.685547 
	C614.324707,972.974304 615.444580,971.263062 617.187500,968.599731 
	C612.942017,968.599731 610.613892,968.599731 608.274780,968.599731 
	C608.274780,970.716248 608.274780,972.444641 608.274780,974.410278 
	C609.815430,974.519104 611.089478,974.609070 613.204773,974.685547 
z"/>
<path fill="#FEFDFD" opacity="1.000000" stroke="none" 
	d="
M779.010254,704.919434 
	C775.221985,726.453064 764.849609,743.899231 746.621033,756.253662 
	C734.625061,764.384033 721.335693,768.829895 706.720642,768.833740 
	C675.066101,768.842102 643.411316,768.912659 611.757080,768.806946 
	C572.541748,768.676025 539.676208,736.378479 538.932190,697.176758 
	C538.650818,682.354248 538.747864,667.521118 538.925110,652.695862 
	C538.969360,648.999695 537.841125,646.617432 534.920593,644.274963 
	C507.505035,622.285645 480.221252,600.132019 452.901398,578.023438 
	C451.897064,577.210693 450.913361,576.372375 450.395813,574.684143 
	C479.434998,587.673462 508.474152,600.662781 538.843384,614.247009 
	C538.843384,610.055908 538.903564,606.860291 538.833496,603.667603 
	C538.391052,583.499146 545.229492,566.041870 558.970703,551.456116 
	C572.844116,536.729919 590.096497,528.473511 610.379761,528.205627 
	C642.861572,527.776672 675.353394,528.013306 707.840149,528.162048 
	C712.630432,528.183960 717.415771,529.267334 722.609741,529.937561 
	C723.015991,530.015564 723.050903,530.053101 723.032532,530.517822 
	C723.002258,564.435791 723.307373,597.893250 722.851807,631.340393 
	C722.604492,649.498413 727.723816,665.480835 739.267212,679.276367 
	C749.748474,691.802612 762.475220,701.096436 778.998901,704.339294 
	C779.000916,704.532715 779.010254,704.919434 779.010254,704.919434 
M642.347656,580.348572 
	C634.678528,581.489319 631.811218,584.581360 631.804321,592.182495 
	C631.767883,632.463074 631.771484,672.743713 631.808899,713.024292 
	C631.815796,720.419434 635.597107,724.708984 641.837036,724.733459 
	C648.005066,724.757629 652.092468,720.274536 652.099243,713.160217 
	C652.137634,672.879639 652.138489,632.598999 652.107544,592.318420 
	C652.102234,585.370850 649.838501,582.522034 642.347656,580.348572 
M621.591187,619.574219 
	C621.521545,616.581116 621.755371,613.543152 621.321838,610.603760 
	C620.271790,603.484192 612.912781,599.758911 606.579102,603.011902 
	C602.801941,604.951843 601.109985,608.274048 601.105530,612.410461 
	C601.076782,639.379517 601.084534,666.348572 601.115295,693.317627 
	C601.116577,694.462219 601.319275,695.652344 601.671143,696.742859 
	C603.140381,701.295898 607.288574,704.137146 611.989441,703.749512 
	C616.875000,703.346680 619.990540,700.623169 621.151245,695.923157 
	C621.621338,694.019714 621.573425,691.961487 621.575623,689.973511 
	C621.600952,666.833313 621.590820,643.693054 621.591187,619.574219 
M692.940552,658.500000 
	C692.943359,667.829468 692.915527,677.159119 692.958923,686.488403 
	C692.992920,693.800598 696.775269,698.202393 702.952026,698.251892 
	C709.161255,698.301636 713.196533,693.902893 713.213196,686.740967 
	C713.266174,663.917175 713.269348,641.093140 713.211121,618.269409 
	C713.192749,611.067810 709.161926,606.685913 702.954834,606.763855 
	C696.769897,606.841431 692.963928,611.256836 692.946289,618.516113 
	C692.914734,631.510681 692.939392,644.505371 692.940552,658.500000 
M682.800781,639.556641 
	C682.798950,637.728333 682.819214,635.899719 682.791260,634.071838 
	C682.682312,626.930420 678.811829,622.354797 672.757568,622.187622 
	C666.407715,622.012329 662.344666,626.493103 662.293762,634.054810 
	C662.209839,646.519714 662.218384,658.985962 662.296265,671.450989 
	C662.342834,678.896973 666.018616,683.145325 672.240479,683.268188 
	C678.620850,683.394104 682.712402,678.898376 682.769348,671.454102 
	C682.848206,661.149841 682.796936,650.844604 682.800781,639.556641 
z"/>
<path fill="#FEFDFD" opacity="1.000000" stroke="none" 
	d="
M779.409790,704.960205 
	C779.010254,704.919434 779.000916,704.532715 779.002441,703.853577 
	C779.007751,667.688416 779.022217,632.202454 778.990784,596.716431 
	C778.988770,594.399719 778.830688,592.047241 778.413086,589.772339 
	C774.907166,570.673218 765.960938,554.749451 750.305786,543.006165 
	C742.140808,536.881409 733.329529,531.856140 723.050903,530.053101 
	C723.050903,530.053101 723.015991,530.015564 722.998108,529.997192 
	C729.056152,492.125580 759.274536,466.178650 797.694092,466.027985 
	C827.516785,465.911041 857.340576,465.911865 887.163269,466.023651 
	C930.465820,466.185974 962.635132,498.208557 963.041992,541.484070 
	C963.171997,555.311523 963.160156,569.141907 963.017395,582.968994 
	C962.984985,586.106506 963.946716,588.154175 966.420898,590.142883 
	C992.386963,611.014038 1018.250916,632.012024 1044.152832,652.962952 
	C1046.030151,654.481506 1047.982422,655.907349 1049.899902,657.376343 
	C1049.460938,657.895020 1049.022095,658.413635 1048.583252,658.932312 
	C1020.360779,646.296814 992.138428,633.661377 963.060974,620.643127 
	C963.060974,625.254333 963.083984,628.865295 963.057556,632.475952 
	C962.757202,673.463379 930.566223,706.345825 889.619934,706.859192 
	C858.135803,707.253967 826.642334,707.025269 795.154236,706.852661 
	C790.036011,706.824646 784.924133,705.647156 779.409790,704.960205 
M872.023682,581.500000 
	C872.023682,569.673584 872.026428,557.847229 872.022583,546.020813 
	C872.020508,539.691223 872.107849,533.359436 871.970337,527.032654 
	C871.833313,520.725586 867.606323,516.269470 861.914673,516.135620 
	C856.215759,516.001587 851.952454,520.386841 851.640137,526.726990 
	C851.591003,527.724182 851.622803,528.725464 851.622803,529.724854 
	C851.622131,568.535339 851.618469,607.345886 851.632629,646.156372 
	C851.633362,648.150696 851.594910,650.175903 851.907898,652.133423 
	C852.729980,657.275452 856.423218,660.327576 861.616577,660.388733 
	C867.908813,660.462830 871.955750,656.150085 871.979065,648.960815 
	C872.050842,626.807373 872.016663,604.653625 872.023682,581.500000 
M902.621033,607.500122 
	C902.623596,588.018433 902.670288,568.536560 902.605347,549.055054 
	C902.581970,542.029968 898.355774,537.515198 892.200439,537.581116 
	C886.252441,537.644836 882.167725,542.064392 882.152405,548.857422 
	C882.093140,575.165955 882.095398,601.474670 882.150330,627.783203 
	C882.165649,635.138855 885.975769,639.394470 892.246887,639.449097 
	C898.490906,639.503479 902.493164,635.175415 902.612061,627.981445 
	C902.719360,621.489380 902.625793,614.994019 902.621033,607.500122 
M790.375366,615.451172 
	C790.376526,617.613342 790.362915,619.775696 790.381531,621.937744 
	C790.446472,629.491516 794.323425,634.092651 800.575439,634.052429 
	C806.873840,634.011902 810.757141,629.484009 810.800354,621.911194 
	C810.862915,610.934265 810.823303,599.956787 810.824524,588.979553 
	C810.825745,577.170715 810.930786,565.360596 810.785828,553.553589 
	C810.688171,545.600464 804.657349,540.873596 797.599365,542.903992 
	C792.889404,544.258850 790.402405,547.980042 790.390137,554.090332 
	C790.349670,574.215088 790.375305,594.340088 790.375366,615.451172 
M836.649109,559.628052 
	C827.722412,555.839355 821.027222,560.191284 820.986023,569.898499 
	C820.933167,582.367798 820.946899,594.837585 820.986450,607.307007 
	C821.009705,614.646851 824.708191,618.952637 830.945679,619.065430 
	C837.269348,619.179749 841.224060,614.994141 841.283813,607.706482 
	C841.388733,594.905334 841.568726,582.093872 841.128723,569.307007 
	C841.021423,566.188904 838.630554,563.149414 836.649109,559.628052 
z"/>
<path fill="#FDF8F7" opacity="1.000000" stroke="none" 
	d="
M476.921997,934.009399 
	C467.620636,934.009705 458.807587,934.009705 449.596619,934.009705 
	C449.596619,911.676880 449.596619,889.628662 449.596619,866.361084 
	C461.914703,866.874451 474.326752,866.887207 486.619354,868.105225 
	C493.318512,868.769043 498.050995,873.381226 499.451477,880.391479 
	C500.848816,887.385986 498.740356,893.192078 492.982269,897.562195 
	C492.481750,897.942017 492.040375,898.399719 491.130493,899.217834 
	C496.919769,902.208618 501.151978,906.172791 501.998932,912.671875 
	C503.530548,924.424438 496.253387,932.507629 482.898743,933.834900 
	C481.081451,934.015625 479.240356,933.956909 476.921997,934.009399 
M468.878601,921.447998 
	C472.354309,921.375061 475.846771,921.491028 479.301758,921.184448 
	C484.373383,920.734436 486.889008,918.129089 486.925415,913.761353 
	C486.961334,909.451050 484.411713,906.557190 479.409607,906.174866 
	C474.659180,905.811890 469.859283,906.096741 464.467651,906.096741 
	C464.467651,910.606201 464.274902,914.884094 464.627747,919.116394 
	C464.699707,919.979675 466.821960,920.671997 468.878601,921.447998 
M472.469055,894.235352 
	C474.620514,894.128845 476.817108,894.260620 478.913574,893.863647 
	C482.657501,893.154663 484.692535,890.671570 484.682953,886.855835 
	C484.673523,883.096436 482.889221,880.304871 478.988770,879.880371 
	C474.321869,879.372498 469.599243,879.376831 464.773468,879.153442 
	C464.773468,884.660217 464.773468,889.220276 464.773468,894.236328 
	C467.262451,894.236328 469.394897,894.236328 472.469055,894.235352 
z"/>
<path fill="#FDF7F6" opacity="1.000000" stroke="none" 
	d="
M249.192322,872.292358 
	C249.192413,870.348938 249.192413,868.869873 249.192413,866.284607 
	C261.189484,866.862305 272.860870,866.634399 284.282410,868.213501 
	C294.184937,869.582520 300.778107,876.481689 304.219482,885.881042 
	C307.716248,895.431580 307.719330,905.163574 304.261932,914.719299 
	C300.344910,925.545227 292.396118,932.284546 281.073914,933.335693 
	C270.733734,934.295715 260.234222,933.539307 249.192215,933.539307 
	C249.192215,913.256348 249.192215,893.006531 249.192322,872.292358 
M264.852905,882.835876 
	C264.852905,895.262268 264.852905,907.688599 264.852905,920.107483 
	C269.478577,920.107483 273.320801,920.397339 277.100769,920.035828 
	C282.093750,919.558350 285.924133,916.807495 287.940063,912.224487 
	C291.395355,904.369080 291.480225,896.263367 287.878571,888.483337 
	C284.366028,880.895691 270.843445,877.243652 264.852905,882.835876 
z"/>
<path fill="#FDF8F7" opacity="1.000000" stroke="none" 
	d="
M747.032104,922.972900 
	C747.032104,904.195312 747.032104,885.914124 747.032104,866.751587 
	C759.924011,867.565796 772.820068,864.516296 785.051758,869.165527 
	C789.895020,871.006470 794.849060,874.630676 797.867981,878.805786 
	C806.740845,891.077087 806.603271,904.836548 800.458984,918.084778 
	C794.862427,930.152039 783.938904,934.157776 771.178528,934.024231 
	C763.380615,933.942627 755.581177,934.009094 747.032104,934.009094 
	C747.032104,930.305786 747.032104,926.887512 747.032104,922.972900 
M785.589661,888.181030 
	C780.301208,879.144104 771.732788,880.081482 762.608032,880.422913 
	C762.608032,893.219604 762.581787,905.621460 762.672607,918.022400 
	C762.678101,918.774109 763.445374,919.901123 764.142578,920.208557 
	C772.281311,923.796692 784.287964,918.125916 786.880249,909.352417 
	C788.911499,902.477905 788.725220,895.588684 785.589661,888.181030 
z"/>
<path fill="#FDF8F7" opacity="1.000000" stroke="none" 
	d="
M314.660034,901.813232 
	C314.495392,893.402344 315.826996,885.765015 320.161804,878.925598 
	C326.755951,868.521362 336.596832,864.900879 348.443512,865.843079 
	C359.964905,866.759399 368.157806,872.597778 372.531219,883.255432 
	C377.816650,896.135559 377.499176,909.045044 370.634491,921.248962 
	C364.602234,931.972961 352.832520,936.917480 339.742004,934.794250 
	C326.964386,932.721741 319.542969,924.644592 316.150940,912.596497 
	C315.215424,909.273682 315.145477,905.707153 314.660034,901.813232 
M359.412384,896.195801 
	C358.978333,894.087402 358.736908,891.916321 358.075104,889.882019 
	C355.851349,883.046875 351.401825,879.693726 344.969025,879.782471 
	C338.835205,879.867004 334.330017,883.293518 332.353302,889.893555 
	C330.154449,897.235352 330.094421,904.667847 332.775482,911.928772 
	C335.069977,918.143066 339.493652,921.175964 345.586426,921.075867 
	C351.264496,920.982544 356.032257,917.846924 357.705536,911.751587 
	C358.998749,907.040649 358.958221,901.963623 359.412384,896.195801 
z"/>
<path fill="#FDF8F7" opacity="1.000000" stroke="none" 
	d="
M986.756836,935.014404 
	C960.552002,936.877258 950.220642,914.211304 953.690613,892.915649 
	C957.084229,872.088257 973.817688,861.213745 993.301208,866.961975 
	C1002.682800,869.729858 1008.688354,876.111511 1011.818726,885.063293 
	C1015.505371,895.605957 1015.535217,906.306274 1011.326050,916.782776 
	C1006.963867,927.640076 998.885925,933.733582 986.756836,935.014404 
M969.857056,906.486877 
	C970.146790,907.778198 970.343811,909.098938 970.741638,910.356079 
	C973.032715,917.595764 977.415588,921.136902 983.920105,921.075256 
	C990.267883,921.015198 995.708801,917.207458 996.705994,910.029297 
	C997.640808,903.300293 997.482300,896.136047 996.217407,889.464294 
	C994.943115,882.743347 989.771973,879.697754 983.484375,879.772095 
	C977.506226,879.842773 972.718384,882.989197 971.164978,889.440613 
	C969.909424,894.654785 970.155457,900.230469 969.857056,906.486877 
z"/>
<path fill="#FDFAF9" opacity="1.000000" stroke="none" 
	d="
M1136.412354,900.206787 
	C1133.000732,904.189148 1129.768799,907.834167 1126.008179,912.075317 
	C1129.993774,918.481750 1134.525269,925.765564 1139.627441,933.966797 
	C1133.692383,933.966797 1128.634399,934.131897 1123.603638,933.836060 
	C1122.517578,933.772095 1121.284180,932.207214 1120.538574,931.060608 
	C1117.544312,926.455139 1114.500366,921.858337 1111.894775,917.031616 
	C1109.919067,913.371643 1107.435425,911.957947 1103.105957,913.517883 
	C1103.105957,919.993286 1103.105957,926.611145 1103.105957,933.615051 
	C1097.863281,933.615051 1092.983765,933.615051 1087.826172,933.615051 
	C1087.826172,911.471436 1087.826172,889.385498 1087.826172,867.245972 
	C1098.249878,867.245972 1108.498535,866.259888 1118.481445,867.468506 
	C1134.984985,869.466614 1142.197998,883.206055 1136.412354,900.206787 
M1103.019897,881.779236 
	C1103.019897,887.708984 1103.019897,893.638672 1103.019897,900.102783 
	C1106.097168,900.102783 1108.702271,900.132141 1111.306274,900.090454 
	C1112.629883,900.069336 1113.978394,900.057434 1115.269043,899.804382 
	C1120.102661,898.856567 1122.745728,895.733765 1123.008667,890.821411 
	C1123.289062,885.580322 1121.038208,881.513245 1116.183594,880.722778 
	C1111.960815,880.035156 1107.510254,880.746521 1103.019897,881.779236 
z"/>
<path fill="#FDF6F6" opacity="1.000000" stroke="none" 
	d="
M437.365936,915.198730 
	C433.810822,929.844116 423.302094,936.541321 406.989136,934.913269 
	C393.870514,933.604004 385.274506,924.156250 385.062561,910.252991 
	C384.844604,895.955200 385.014191,881.651550 385.014191,867.089661 
	C390.241058,867.089661 395.147369,867.089661 400.566742,867.089661 
	C400.566742,878.153687 400.541992,888.935547 400.579224,899.717224 
	C400.593567,903.876160 400.499451,908.058533 400.898071,912.187500 
	C401.494873,918.368713 405.607483,921.979248 411.462158,921.955505 
	C417.329742,921.931702 421.811310,918.321716 422.028748,912.193237 
	C422.477081,899.556519 422.323029,886.898376 422.410645,874.249023 
	C422.426514,871.955383 422.412903,869.661499 422.412903,867.090820 
	C427.690643,867.090820 432.459137,867.090820 437.465210,867.090820 
	C437.465210,883.029846 437.465210,898.904907 437.365936,915.198730 
z"/>
<path fill="#FDF8F7" opacity="1.000000" stroke="none" 
	d="
M1060.996704,897.989929 
	C1060.996704,887.518433 1060.996704,877.544861 1060.996704,867.190674 
	C1066.122192,867.190674 1070.984863,867.190674 1076.443726,867.190674 
	C1076.443726,874.063721 1076.485107,880.832520 1076.433228,887.600586 
	C1076.369507,895.917786 1076.534668,904.252502 1076.046509,912.546997 
	C1075.355835,924.287415 1068.575684,931.794495 1057.025269,934.428467 
	C1043.854248,937.432068 1031.126709,932.345398 1026.219360,921.922180 
	C1025.104980,919.555359 1024.040283,916.881592 1024.007446,914.335571 
	C1023.805237,898.719788 1023.906189,883.100159 1023.906189,867.144104 
	C1028.634644,867.144104 1033.559082,867.144104 1038.996704,867.144104 
	C1038.996704,880.316284 1038.953979,893.417786 1039.032715,906.518555 
	C1039.048584,909.153564 1039.200073,911.870667 1039.859863,914.401062 
	C1041.139893,919.308960 1044.745972,921.865479 1049.736328,921.941833 
	C1054.908325,922.020935 1059.138550,919.422302 1060.039429,914.349670 
	C1060.959473,909.169128 1060.725464,903.783569 1060.996704,897.989929 
z"/>
<path fill="#FDFAF9" opacity="1.000000" stroke="none" 
	d="
M1201.531250,907.999756 
	C1201.531494,894.198730 1201.531494,880.897766 1201.531494,867.210693 
	C1216.987671,867.210693 1232.016235,867.210693 1247.374512,867.210693 
	C1247.374512,871.259827 1247.374512,875.178772 1247.374512,879.679688 
	C1237.428711,879.679688 1227.540405,879.679688 1217.265381,879.679688 
	C1217.265381,884.267883 1217.265381,888.284485 1217.265381,892.838623 
	C1226.078125,892.838623 1234.659546,892.838623 1243.543213,892.838623 
	C1243.543213,897.096436 1243.543213,900.822083 1243.543213,905.098145 
	C1234.741699,905.098145 1226.163696,905.098145 1217.234863,905.098145 
	C1217.234863,910.526855 1217.234863,915.413696 1217.234863,920.840576 
	C1227.383545,920.840576 1237.457153,920.840576 1247.864624,920.840576 
	C1247.864624,925.409119 1247.864624,929.446167 1247.864624,933.745667 
	C1232.544067,933.745667 1217.446777,933.745667 1201.531128,933.745667 
	C1201.531128,925.326538 1201.531128,916.913147 1201.531250,907.999756 
z"/>
<path fill="#FDFAF9" opacity="1.000000" stroke="none" 
	d="
M562.531311,917.994873 
	C562.531494,900.864136 562.531494,884.232117 562.531494,867.212097 
	C577.986023,867.212097 593.014648,867.212097 608.373657,867.212097 
	C608.373657,871.258362 608.373657,875.178467 608.373657,879.677795 
	C598.431213,879.677795 588.541809,879.677795 578.266357,879.677795 
	C578.266357,884.266235 578.266357,888.282898 578.266357,892.837036 
	C587.076416,892.837036 595.657898,892.837036 604.542480,892.837036 
	C604.542480,897.094727 604.542480,900.820435 604.542480,905.096802 
	C595.743103,905.096802 587.165222,905.096802 578.235535,905.096802 
	C578.235535,910.524170 578.235535,915.410156 578.235535,920.839539 
	C588.382263,920.839539 598.455933,920.839539 608.864075,920.839539 
	C608.864075,925.408081 608.864075,929.445190 608.864075,933.745239 
	C593.545166,933.745239 578.447815,933.745239 562.531128,933.745239 
	C562.531128,928.661987 562.531128,923.577759 562.531311,917.994873 
z"/>
<path fill="#FDF8F7" opacity="1.000000" stroke="none" 
	d="
M655.748535,915.609375 
	C661.153870,900.352539 666.505188,885.492065 671.631531,870.554382 
	C672.606567,867.713135 673.955627,866.759949 676.951416,866.741943 
	C689.622864,866.665649 689.619019,866.564575 693.763733,878.265625 
	C699.647766,894.877197 705.539978,911.485840 711.419983,928.098816 
	C712.020447,929.795471 712.561401,931.513245 713.385925,933.989990 
	C708.264587,933.989990 703.664795,934.287598 699.152039,933.792358 
	C697.939087,933.659302 696.563721,931.264832 695.993713,929.650391 
	C693.274048,921.947449 693.363525,921.915833 685.127808,921.915710 
	C683.463074,921.915649 681.798279,921.915710 680.133545,921.915710 
	C669.899963,921.915710 669.971375,921.945862 666.012695,931.300293 
	C665.518250,932.468567 663.843018,933.786255 662.625183,933.880920 
	C658.502808,934.201538 654.339966,934.003235 649.301147,934.003235 
	C651.521484,927.666077 653.568970,921.822449 655.748535,915.609375 
M685.078918,896.327393 
	C683.957397,892.921997 682.835876,889.516602 681.316589,884.903503 
	C678.364075,893.872192 675.793030,901.682129 673.148987,909.713745 
	C678.696838,909.713745 683.755310,909.713745 689.436462,909.713745 
	C687.963013,905.214233 686.632385,901.150757 685.078918,896.327393 
z"/>
<path fill="#FDF8F7" opacity="1.000000" stroke="none" 
	d="
M1172.886963,909.108398 
	C1167.929565,907.053467 1163.274414,905.279846 1158.696045,903.326111 
	C1148.428223,898.944397 1144.052856,892.327637 1145.189819,883.112549 
	C1146.287476,874.216431 1153.208374,867.047485 1163.565063,866.354370 
	C1171.035522,865.854370 1178.667114,867.480713 1186.202515,868.364990 
	C1189.196167,868.716248 1190.304199,870.490845 1189.441895,873.678162 
	C1188.635864,876.656799 1188.423706,879.795959 1187.958618,882.809814 
	C1183.126099,881.600769 1178.848267,880.241516 1174.465210,879.540283 
	C1171.751221,879.106018 1168.736938,879.192749 1166.124756,879.957947 
	C1164.409790,880.460388 1162.214355,882.441650 1161.966797,884.030579 
	C1161.669312,885.940369 1162.611572,888.955994 1164.084839,890.034851 
	C1166.961670,892.141785 1170.584229,893.227478 1173.891235,894.750977 
	C1177.650635,896.482849 1181.726685,897.756165 1185.098511,900.058533 
	C1196.365234,907.751892 1196.022461,924.092224 1184.211548,930.926331 
	C1171.798828,938.108643 1158.894287,935.999512 1146.231689,931.069641 
	C1145.450562,930.765564 1144.581421,929.349060 1144.625977,928.495728 
	C1144.814941,924.877441 1145.333618,921.276306 1145.723755,917.742493 
	C1151.683594,919.043396 1157.250977,920.379395 1162.872803,921.422974 
	C1164.958984,921.810242 1167.382080,922.081909 1169.276855,921.386047 
	C1171.842529,920.443909 1175.360107,918.949646 1176.033203,916.894287 
	C1176.690552,914.887451 1174.284912,911.877502 1172.886963,909.108398 
z"/>
<path fill="#FDF8F7" opacity="1.000000" stroke="none" 
	d="
M856.866150,885.813904 
	C859.330933,888.458008 861.460266,891.274963 864.285889,892.811768 
	C868.629517,895.174011 873.608459,896.346191 878.034607,898.583618 
	C885.230225,902.220947 888.835999,908.272400 888.284607,916.456970 
	C887.732605,924.652710 883.180298,930.126160 875.742798,932.903137 
	C864.428528,937.127502 853.157166,935.723267 842.187439,931.346680 
	C841.113586,930.918274 840.027039,928.934204 840.037048,927.681030 
	C840.064636,924.239685 840.673096,920.802979 841.012695,917.718994 
	C847.070740,919.044006 852.702881,920.314270 858.355896,921.483276 
	C859.644409,921.749695 861.024231,921.846619 862.329346,921.709778 
	C866.259399,921.297729 870.864258,921.519958 871.812866,916.320435 
	C872.717773,911.361023 869.024597,909.216370 865.202515,907.619324 
	C861.066345,905.890930 856.735718,904.611938 852.653198,902.774292 
	C843.806763,898.792236 839.550720,892.193665 840.330750,884.200867 
	C841.193909,875.356262 846.457458,869.277466 855.809448,866.871582 
	C864.784668,864.562561 873.667969,865.500488 882.239258,868.799683 
	C883.427063,869.256775 884.734863,871.338623 884.706055,872.640198 
	C884.633484,875.925842 883.830322,879.195374 883.312500,882.519714 
	C877.512390,881.366943 871.949463,879.798096 866.288452,879.260376 
	C860.039429,878.666809 857.869873,880.492188 856.866150,885.813904 
z"/>
<path fill="#FDF8F7" opacity="1.000000" stroke="none" 
	d="
M938.790405,882.917358 
	C934.978333,881.739563 931.553467,880.158264 928.014282,879.836731 
	C920.304749,879.136475 914.168152,882.871765 912.710388,890.396179 
	C911.486023,896.716187 911.333557,903.680237 912.648621,909.951904 
	C914.539246,918.968262 922.782654,922.891113 932.134033,920.489136 
	C935.292725,919.677856 938.287476,918.228027 941.726501,916.930664 
	C943.361267,920.760864 944.977966,924.548645 946.568420,928.274902 
	C934.663147,940.365112 909.360718,936.778931 900.359070,921.264587 
	C892.322388,907.413574 892.407776,892.771118 900.560425,878.991516 
	C909.330872,864.167542 930.969177,861.163696 946.228638,872.274963 
	C944.899414,875.506775 943.641785,878.907166 942.049744,882.142944 
	C941.735474,882.781860 940.133728,882.787537 938.790405,882.917358 
z"/>
<path fill="#FDFBFA" opacity="1.000000" stroke="none" 
	d="
M527.404907,892.000244 
	C527.404968,901.636963 527.404968,910.773682 527.404968,920.652344 
	C536.688599,920.652344 545.545654,920.652344 554.654663,920.652344 
	C554.654663,925.328552 554.654663,929.263611 554.654663,933.602600 
	C540.603882,933.602600 526.566040,933.602600 512.197876,933.602600 
	C512.197876,911.535217 512.197876,889.491211 512.197876,867.135559 
	C517.114868,867.135559 521.853882,867.135559 527.404846,867.135559 
	C527.404846,875.327209 527.404846,883.413696 527.404907,892.000244 
z"/>
<path fill="#FDFBFA" opacity="1.000000" stroke="none" 
	d="
M830.279541,921.986511 
	C830.279602,926.117371 830.279602,929.751221 830.279602,933.687378 
	C825.080017,933.687378 820.335449,933.687378 815.229248,933.687378 
	C815.229248,911.596436 815.229248,889.553101 815.229248,867.166565 
	C820.047058,867.166565 824.778442,867.166565 830.279541,867.166565 
	C830.279541,885.323120 830.279541,903.406311 830.279541,921.986511 
z"/>
<path fill="#FDF4F3" opacity="1.000000" stroke="none" 
	d="
M569.082458,986.066040 
	C568.292358,983.150513 567.592468,980.629639 566.886353,978.086365 
	C574.105896,976.579773 574.401978,976.755432 575.871033,982.932983 
	C576.525391,985.684448 577.191528,988.433289 577.880249,991.176331 
	C577.992981,991.625427 578.251465,992.037964 578.805115,993.282104 
	C579.966003,988.562561 580.741577,984.493591 582.049255,980.603455 
	C582.490845,979.289734 584.362000,977.497131 585.433899,977.590881 
	C586.862793,977.715881 588.860596,979.208557 589.359314,980.572571 
	C590.687439,984.204712 591.343567,988.082520 593.319641,991.919067 
	C594.096375,988.944092 595.290833,986.006226 595.558838,982.986206 
	C596.048950,977.463745 598.999939,976.442749 604.456299,977.902344 
	C603.573914,981.292786 602.719543,984.725159 601.781860,988.134644 
	C600.899536,991.342468 599.915833,994.522217 599.000427,997.721130 
	C597.057678,1004.510437 597.063965,1004.512268 589.539917,1003.583984 
	C588.413086,999.494080 587.250061,995.273010 586.087097,991.051941 
	C585.807312,991.088745 585.527527,991.125549 585.247742,991.162415 
	C584.136353,995.305847 583.024902,999.449280 581.861694,1003.786011 
	C579.476013,1003.786011 577.189697,1003.786011 574.324524,1003.786011 
	C572.643616,998.133301 570.908142,992.296997 569.082458,986.066040 
z"/>
<path fill="#FDF4F3" opacity="1.000000" stroke="none" 
	d="
M913.470459,977.001709 
	C917.808167,976.976379 921.709106,976.976379 926.749451,976.976379 
	C926.248352,980.925476 927.046143,986.487732 924.695923,989.848450 
	C922.316833,993.250549 916.823364,994.474609 912.944580,996.520569 
	C914.087219,996.618713 916.192871,996.881714 918.305542,996.965271 
	C924.313171,997.202759 927.578064,999.425781 927.906128,1003.605286 
	C928.235596,1007.802673 925.354797,1011.176514 919.890503,1012.168091 
	C916.846558,1012.720398 913.565308,1012.889221 910.532288,1012.383667 
	C904.427795,1011.366028 903.182190,1008.494507 905.275391,1002.546814 
	C905.671387,1001.421509 904.311035,999.621948 904.773865,998.586121 
	C906.956543,993.701477 904.239685,988.965759 904.697998,984.238159 
	C905.151367,979.560669 908.729736,977.679443 913.470459,977.001709 
M914.688660,1002.309204 
	C912.370117,1002.396362 909.691223,1002.901062 911.791870,1005.741577 
	C912.677185,1006.938660 915.942871,1006.587891 918.108643,1006.500305 
	C918.791626,1006.472717 919.416748,1005.013367 920.068359,1004.209290 
	C918.546204,1003.577026 917.023987,1002.944763 914.688660,1002.309204 
M914.537476,989.133972 
	C915.921448,988.120544 917.487488,987.260193 918.559204,985.984497 
	C918.821594,985.672180 917.603516,983.261169 916.824585,983.116638 
	C915.433838,982.858521 913.859192,983.591248 912.361389,983.909668 
	C912.819580,985.587952 913.277710,987.266235 914.537476,989.133972 
z"/>
<path fill="#FDF4F3" opacity="1.000000" stroke="none" 
	d="
M778.098328,974.235474 
	C778.098389,972.282227 778.098389,970.795654 778.098389,968.895264 
	C780.612793,968.895264 782.835632,968.895264 785.579285,968.895264 
	C785.579285,972.064941 785.579285,975.141907 785.579285,978.802856 
	C787.197815,978.253174 788.161560,977.795471 789.174988,977.611450 
	C790.789917,977.318237 792.466553,976.917175 794.066589,977.074646 
	C798.562378,977.517151 801.320251,980.368408 802.520020,984.479004 
	C804.267761,990.466797 804.219849,996.429016 799.897217,1001.449646 
	C796.982056,1004.835632 793.203247,1004.907837 788.924744,1003.975403 
	C785.645752,1003.260803 782.086243,1003.833252 778.098267,1003.833252 
	C778.098267,993.911987 778.098267,984.307129 778.098328,974.235474 
M788.266846,984.527100 
	C785.225952,987.678833 785.091919,991.353943 786.816895,995.044189 
	C788.105591,997.801147 791.169189,999.497864 793.095642,996.960083 
	C794.891846,994.593811 795.435486,990.711243 795.258423,987.567810 
	C795.072327,984.264648 792.292603,983.079285 788.266846,984.527100 
z"/>
<path fill="#FDF1F0" opacity="1.000000" stroke="none" 
	d="
M654.926270,984.090576 
	C650.311523,983.809753 649.000427,986.318298 648.984436,989.983521 
	C648.965027,994.449341 648.979797,998.915344 648.979797,1003.700012 
	C646.346313,1003.700012 644.126526,1003.700012 641.328979,1003.700012 
	C641.328979,992.758911 641.006897,981.963562 641.471008,971.202148 
	C641.688477,966.159058 645.904846,969.284912 648.928223,968.522400 
	C648.928223,972.241272 648.928223,975.466614 648.928223,979.288086 
	C650.600647,978.540588 651.592651,978.027771 652.632263,977.644043 
	C658.703186,975.402649 664.167175,978.291443 664.709717,984.672913 
	C665.239990,990.909912 664.825073,997.227356 664.825073,1003.765991 
	C662.382385,1003.765991 660.284668,1003.765991 657.351013,1003.765991 
	C657.351013,999.313965 657.561584,994.886475 657.260498,990.494141 
	C657.114319,988.361877 656.010254,986.295227 654.926270,984.090576 
z"/>
<path fill="#FDF4F3" opacity="1.000000" stroke="none" 
	d="
M707.701172,974.666504 
	C706.997681,976.196472 706.432617,977.375061 705.764709,978.768066 
	C701.122131,977.167725 696.404541,974.943909 692.596497,979.928162 
	C690.131104,983.155029 690.074219,990.881531 692.491638,994.190979 
	C696.189636,999.253601 700.958679,997.248474 705.991150,995.683594 
	C706.806274,997.525696 707.580505,999.275269 708.454834,1001.251221 
	C703.821106,1004.828857 698.930359,1005.396362 693.723206,1003.967957 
	C684.492432,1001.435730 679.910583,990.136047 683.803040,979.680664 
	C686.987305,971.127686 696.633484,967.303223 705.212891,971.346436 
	C706.310913,971.863892 706.974609,973.303040 707.701172,974.666504 
z"/>
<path fill="#FDF4F3" opacity="1.000000" stroke="none" 
	d="
M871.160522,995.048218 
	C871.160400,998.161865 871.160400,1000.810974 871.160400,1003.419312 
	C865.887329,1003.838440 860.983215,1004.564087 856.086243,1004.518311 
	C851.637939,1004.476807 849.193237,1001.538879 848.721130,997.178040 
	C848.249329,992.820312 849.867493,989.535828 854.394531,988.581299 
	C857.245972,987.980103 860.228333,987.999817 863.558411,987.705139 
	C861.449890,980.635132 856.217773,984.352783 851.946960,983.907043 
	C851.665527,982.217407 851.381226,980.510254 850.949463,977.917786 
	C854.817932,977.588257 858.219055,976.957214 861.590881,977.087158 
	C867.413513,977.311462 870.664978,980.745422 871.050842,986.599304 
	C871.225647,989.251648 871.132263,991.921631 871.160522,995.048218 
M859.352539,998.250732 
	C860.962280,996.999512 862.571960,995.748230 864.181702,994.497009 
	C863.778442,993.753662 863.375183,993.010315 862.971924,992.266968 
	C860.704529,992.939270 858.437134,993.611633 856.169800,994.283936 
	C856.954651,995.596558 857.739563,996.909180 859.352539,998.250732 
z"/>
<path fill="#FDF4F3" opacity="1.000000" stroke="none" 
	d="
M732.292847,1003.794434 
	C727.576111,1004.170166 723.280334,1004.402161 718.983398,1004.612427 
	C714.681885,1004.822937 711.387634,1001.995300 710.753174,997.573303 
	C710.071838,992.824463 711.999207,989.528015 716.497620,988.554810 
	C719.212219,987.967407 722.069702,988.040222 724.864441,987.816223 
	C724.407837,983.339539 724.407837,983.339539 713.966370,983.832581 
	C713.669617,982.292236 713.363708,980.704529 713.074951,979.205627 
	C722.018250,974.283508 734.701172,976.700256 733.211975,990.220154 
	C732.723083,994.658264 732.861633,999.165527 732.292847,1003.794434 
M719.713684,998.029358 
	C724.731140,997.986267 724.923828,997.810486 725.021484,993.186829 
	C718.479553,992.108398 717.300232,992.976868 719.713684,998.029358 
z"/>
<path fill="#FDF1F0" opacity="1.000000" stroke="none" 
	d="
M883.757812,993.134338 
	C883.710022,996.604309 883.673645,999.600891 883.597290,1002.596436 
	C883.589661,1002.895020 883.338440,1003.187439 883.073669,1003.753357 
	C881.088318,1003.753357 878.980957,1003.753357 876.464478,1003.753357 
	C876.464478,995.228699 876.464478,986.679443 876.464478,977.355713 
	C878.725098,977.527405 880.936951,977.724243 883.152832,977.852478 
	C884.397156,977.924561 885.787231,978.247803 886.873108,977.833191 
	C893.302734,975.378235 898.671143,977.941895 899.351562,984.712036 
	C899.976379,990.929443 899.484192,997.258972 899.484192,1003.779663 
	C897.076050,1003.779663 894.960999,1003.779663 892.075500,1003.779663 
	C892.075500,999.338684 892.144836,994.905273 892.049744,990.475403 
	C891.991760,987.774292 892.819275,984.131104 888.577942,984.027405 
	C884.316467,983.923157 883.647095,987.183411 883.757019,990.661377 
	C883.778015,991.327087 883.758545,991.994202 883.757812,993.134338 
z"/>
<path fill="#FDF4F3" opacity="1.000000" stroke="none" 
	d="
M759.662903,993.063782 
	C758.236877,995.905518 758.943298,997.574707 761.882202,997.908142 
	C764.280762,998.180115 766.771301,997.640991 769.404175,997.448120 
	C772.224548,1002.071655 771.785828,1003.154358 766.260193,1004.204712 
	C760.978333,1005.208923 756.142822,1004.338135 752.842285,999.785950 
	C749.090149,994.610840 748.974609,988.879883 751.791809,983.246521 
	C754.128052,978.575012 758.274780,976.760681 763.370911,977.012878 
	C768.421814,977.262939 772.095825,980.285828 773.455688,985.214233 
	C775.112915,991.220093 773.763428,993.017517 767.591248,993.026733 
	C765.092712,993.030457 762.594238,993.035461 759.662903,993.063782 
M759.596191,984.191650 
	C759.034302,985.326477 758.472351,986.461243 757.712524,987.995789 
	C761.033325,987.995789 763.433105,987.995789 766.308350,987.995789 
	C765.645935,984.025696 764.040894,982.365601 759.596191,984.191650 
z"/>
<path fill="#FDF4F3" opacity="1.000000" stroke="none" 
	d="
M820.690918,975.360901 
	C819.990845,973.685608 819.461548,972.357544 818.825928,970.762878 
	C823.901550,969.539978 827.579102,969.814880 829.018982,975.499268 
	C829.700439,978.189270 831.160278,980.682068 832.811462,984.532837 
	C834.358215,981.130188 835.842529,978.805969 836.480042,976.268921 
	C837.861450,970.772034 841.096741,969.082153 846.803284,970.749939 
	C843.573425,981.720825 834.270996,990.876709 837.099976,1003.754517 
	C834.079407,1003.754517 831.837402,1003.754517 828.823242,1003.754517 
	C831.141174,992.919189 824.821777,984.682556 820.690918,975.360901 
z"/>
<path fill="#FDF7F6" opacity="1.000000" stroke="none" 
	d="
M644.599976,917.975220 
	C634.492493,917.997131 624.848267,917.997131 614.984741,917.997131 
	C614.984741,913.894287 614.984741,910.147644 614.984741,906.322998 
	C625.594177,906.322998 635.862915,906.322998 647.527466,906.322998 
	C646.638611,910.517822 645.850891,914.235535 644.599976,917.975220 
z"/>
<path fill="#FDF1F0" opacity="1.000000" stroke="none" 
	d="
M628.283264,971.823486 
	C629.273926,973.386169 629.909302,974.924255 630.743713,976.944092 
	C632.259521,977.164673 634.328552,977.465820 636.621704,977.799500 
	C636.621704,979.733276 636.621704,981.476807 636.621704,983.481750 
	C634.469727,983.718567 632.536133,983.931335 630.624268,984.141663 
	C628.284973,994.726013 629.516663,998.031311 637.237427,997.707581 
	C636.480591,1000.070312 636.437805,1002.986267 635.150452,1003.720764 
	C630.613892,1006.308777 624.220459,1004.075195 623.126648,999.636780 
	C622.306885,996.310486 622.740173,992.694702 622.215271,989.269104 
	C621.907715,987.262390 620.727295,985.403320 620.112610,983.424072 
	C619.797363,982.409058 619.352356,980.838074 619.840637,980.269836 
	C622.381531,977.313110 625.203735,974.598022 628.283264,971.823486 
z"/>
<path fill="#FDF1F0" opacity="1.000000" stroke="none" 
	d="
M741.189514,1004.021851 
	C739.929871,1002.557434 738.461975,1001.116821 738.421387,999.637085 
	C738.193970,991.346069 738.307190,983.045654 738.311584,974.748413 
	C738.315125,967.901611 738.389038,967.844543 745.650452,969.034485 
	C745.650452,980.347900 745.650452,991.723083 745.650452,1003.671021 
	C744.430603,1003.779541 743.035461,1003.903564 741.189514,1004.021851 
z"/>
<path fill="#FDF1F0" opacity="1.000000" stroke="none" 
	d="
M608.059082,999.763794 
	C608.058350,992.305176 608.058350,985.319336 608.058350,977.686279 
	C610.489746,977.568176 612.694153,977.461060 615.362915,977.331421 
	C615.362915,986.280396 615.362915,994.813782 615.362915,1003.822021 
	C612.630127,1002.955994 608.018494,1007.022827 608.059082,999.763794 
z"/>
<path fill="#FDF1F0" opacity="1.000000" stroke="none" 
	d="
M612.784119,974.692322 
	C611.089478,974.609070 609.815430,974.519104 608.274780,974.410278 
	C608.274780,972.444641 608.274780,970.716248 608.274780,968.599731 
	C610.613892,968.599731 612.942017,968.599731 617.187500,968.599731 
	C615.444580,971.263062 614.324707,972.974304 612.784119,974.692322 
z"/>
<path fill="#EFEFEF" opacity="1.000000" stroke="none" 
	d="
M723.032532,530.517822 
	C733.329529,531.856140 742.140808,536.881409 750.305786,543.006165 
	C765.960938,554.749451 774.907166,570.673218 778.413086,589.772339 
	C778.830688,592.047241 778.988770,594.399719 778.990784,596.716431 
	C779.022217,632.202454 779.007751,667.688416 779.000427,703.660156 
	C762.475220,701.096436 749.748474,691.802612 739.267212,679.276367 
	C727.723816,665.480835 722.604492,649.498413 722.851807,631.340393 
	C723.307373,597.893250 723.002258,564.435791 723.032532,530.517822 
z"/>
<path fill="#FD5859" opacity="1.000000" stroke="none" 
	d="
M642.724670,580.398010 
	C649.838501,582.522034 652.102234,585.370850 652.107544,592.318420 
	C652.138489,632.598999 652.137634,672.879639 652.099243,713.160217 
	C652.092468,720.274536 648.005066,724.757629 641.837036,724.733459 
	C635.597107,724.708984 631.815796,720.419434 631.808899,713.024292 
	C631.771484,672.743713 631.767883,632.463074 631.804321,592.182495 
	C631.811218,584.581360 634.678528,581.489319 642.724670,580.398010 
z"/>
<path fill="#FC5C5C" opacity="1.000000" stroke="none" 
	d="
M621.590637,620.063538 
	C621.590820,643.693054 621.600952,666.833313 621.575623,689.973511 
	C621.573425,691.961487 621.621338,694.019714 621.151245,695.923157 
	C619.990540,700.623169 616.875000,703.346680 611.989441,703.749512 
	C607.288574,704.137146 603.140381,701.295898 601.671143,696.742859 
	C601.319275,695.652344 601.116577,694.462219 601.115295,693.317627 
	C601.084534,666.348572 601.076782,639.379517 601.105530,612.410461 
	C601.109985,608.274048 602.801941,604.951843 606.579102,603.011902 
	C612.912781,599.758911 620.271790,603.484192 621.321838,610.603760 
	C621.755371,613.543152 621.521545,616.581116 621.590637,620.063538 
z"/>
<path fill="#FD595A" opacity="1.000000" stroke="none" 
	d="
M692.940552,658.000000 
	C692.939392,644.505371 692.914734,631.510681 692.946289,618.516113 
	C692.963928,611.256836 696.769897,606.841431 702.954834,606.763855 
	C709.161926,606.685913 713.192749,611.067810 713.211121,618.269409 
	C713.269348,641.093140 713.266174,663.917175 713.213196,686.740967 
	C713.196533,693.902893 709.161255,698.301636 702.952026,698.251892 
	C696.775269,698.202393 692.992920,693.800598 692.958923,686.488403 
	C692.915527,677.159119 692.943359,667.829468 692.940552,658.000000 
z"/>
<path fill="#FC5D5D" opacity="1.000000" stroke="none" 
	d="
M682.801025,640.048218 
	C682.796936,650.844604 682.848206,661.149841 682.769348,671.454102 
	C682.712402,678.898376 678.620850,683.394104 672.240479,683.268188 
	C666.018616,683.145325 662.342834,678.896973 662.296265,671.450989 
	C662.218384,658.985962 662.209839,646.519714 662.293762,634.054810 
	C662.344666,626.493103 666.407715,622.012329 672.757568,622.187622 
	C678.811829,622.354797 682.682312,626.930420 682.791260,634.071838 
	C682.819214,635.899719 682.798950,637.728333 682.801025,640.048218 
z"/>
<path fill="#FC5958" opacity="1.000000" stroke="none" 
	d="
M872.023682,582.000000 
	C872.016663,604.653625 872.050842,626.807373 871.979065,648.960815 
	C871.955750,656.150085 867.908813,660.462830 861.616577,660.388733 
	C856.423218,660.327576 852.729980,657.275452 851.907898,652.133423 
	C851.594910,650.175903 851.633362,648.150696 851.632629,646.156372 
	C851.618469,607.345886 851.622131,568.535339 851.622803,529.724854 
	C851.622803,528.725464 851.591003,527.724182 851.640137,526.726990 
	C851.952454,520.386841 856.215759,516.001587 861.914673,516.135620 
	C867.606323,516.269470 871.833313,520.725586 871.970337,527.032654 
	C872.107849,533.359436 872.020508,539.691223 872.022583,546.020813 
	C872.026428,557.847229 872.023682,569.673584 872.023682,582.000000 
z"/>
<path fill="#FC5D5D" opacity="1.000000" stroke="none" 
	d="
M902.620911,608.000122 
	C902.625793,614.994019 902.719360,621.489380 902.612061,627.981445 
	C902.493164,635.175415 898.490906,639.503479 892.246887,639.449097 
	C885.975769,639.394470 882.165649,635.138855 882.150330,627.783203 
	C882.095398,601.474670 882.093140,575.165955 882.152405,548.857422 
	C882.167725,542.064392 886.252441,537.644836 892.200439,537.581116 
	C898.355774,537.515198 902.581970,542.029968 902.605347,549.055054 
	C902.670288,568.536560 902.623596,588.018433 902.620911,608.000122 
z"/>
<path fill="#FC5D5D" opacity="1.000000" stroke="none" 
	d="
M790.375488,614.958069 
	C790.375305,594.340088 790.349670,574.215088 790.390137,554.090332 
	C790.402405,547.980042 792.889404,544.258850 797.599365,542.903992 
	C804.657349,540.873596 810.688171,545.600464 810.785828,553.553589 
	C810.930786,565.360596 810.825745,577.170715 810.824524,588.979553 
	C810.823303,599.956787 810.862915,610.934265 810.800354,621.911194 
	C810.757141,629.484009 806.873840,634.011902 800.575439,634.052429 
	C794.323425,634.092651 790.446472,629.491516 790.381531,621.937744 
	C790.362915,619.775696 790.376526,617.613342 790.375488,614.958069 
z"/>
<path fill="#FD595A" opacity="1.000000" stroke="none" 
	d="
M836.969360,559.850952 
	C838.630554,563.149414 841.021423,566.188904 841.128723,569.307007 
	C841.568726,582.093872 841.388733,594.905334 841.283813,607.706482 
	C841.224060,614.994141 837.269348,619.179749 830.945679,619.065430 
	C824.708191,618.952637 821.009705,614.646851 820.986450,607.307007 
	C820.946899,594.837585 820.933167,582.367798 820.986023,569.898499 
	C821.027222,560.191284 827.722412,555.839355 836.969360,559.850952 
z"/>
<path fill="#FC5C5C" opacity="1.000000" stroke="none" 
	d="
M468.438843,921.445557 
	C466.821960,920.671997 464.699707,919.979675 464.627747,919.116394 
	C464.274902,914.884094 464.467651,910.606201 464.467651,906.096741 
	C469.859283,906.096741 474.659180,905.811890 479.409607,906.174866 
	C484.411713,906.557190 486.961334,909.451050 486.925415,913.761353 
	C486.889008,918.129089 484.373383,920.734436 479.301758,921.184448 
	C475.846771,921.491028 472.354309,921.375061 468.438843,921.445557 
z"/>
<path fill="#FC5D5D" opacity="1.000000" stroke="none" 
	d="
M471.998199,894.235840 
	C469.394897,894.236328 467.262451,894.236328 464.773468,894.236328 
	C464.773468,889.220276 464.773468,884.660217 464.773468,879.153442 
	C469.599243,879.376831 474.321869,879.372498 478.988770,879.880371 
	C482.889221,880.304871 484.673523,883.096436 484.682953,886.855835 
	C484.692535,890.671570 482.657501,893.154663 478.913574,893.863647 
	C476.817108,894.260620 474.620514,894.128845 471.998199,894.235840 
z"/>
<path fill="#FF595A" opacity="1.000000" stroke="none" 
	d="
M264.884888,882.373169 
	C270.843445,877.243652 284.366028,880.895691 287.878571,888.483337 
	C291.480225,896.263367 291.395355,904.369080 287.940063,912.224487 
	C285.924133,916.807495 282.093750,919.558350 277.100769,920.035828 
	C273.320801,920.397339 269.478577,920.107483 264.852905,920.107483 
	C264.852905,907.688599 264.852905,895.262268 264.884888,882.373169 
z"/>
<path fill="#FF595A" opacity="1.000000" stroke="none" 
	d="
M785.757690,888.530823 
	C788.725220,895.588684 788.911499,902.477905 786.880249,909.352417 
	C784.287964,918.125916 772.281311,923.796692 764.142578,920.208557 
	C763.445374,919.901123 762.678101,918.774109 762.672607,918.022400 
	C762.581787,905.621460 762.608032,893.219604 762.608032,880.422913 
	C771.732788,880.081482 780.301208,879.144104 785.757690,888.530823 
z"/>
<path fill="#FF595A" opacity="1.000000" stroke="none" 
	d="
M359.461548,896.622559 
	C358.958221,901.963623 358.998749,907.040649 357.705536,911.751587 
	C356.032257,917.846924 351.264496,920.982544 345.586426,921.075867 
	C339.493652,921.175964 335.069977,918.143066 332.775482,911.928772 
	C330.094421,904.667847 330.154449,897.235352 332.353302,889.893555 
	C334.330017,883.293518 338.835205,879.867004 344.969025,879.782471 
	C351.401825,879.693726 355.851349,883.046875 358.075104,889.882019 
	C358.736908,891.916321 358.978333,894.087402 359.461548,896.622559 
z"/>
<path fill="#FF595A" opacity="1.000000" stroke="none" 
	d="
M969.796204,906.066345 
	C970.155457,900.230469 969.909424,894.654785 971.164978,889.440613 
	C972.718384,882.989197 977.506226,879.842773 983.484375,879.772095 
	C989.771973,879.697754 994.943115,882.743347 996.217407,889.464294 
	C997.482300,896.136047 997.640808,903.300293 996.705994,910.029297 
	C995.708801,917.207458 990.267883,921.015198 983.920105,921.075256 
	C977.415588,921.136902 973.032715,917.595764 970.741638,910.356079 
	C970.343811,909.098938 970.146790,907.778198 969.796204,906.066345 
z"/>
<path fill="#FF595A" opacity="1.000000" stroke="none" 
	d="
M1103.090088,881.309448 
	C1107.510254,880.746521 1111.960815,880.035156 1116.183594,880.722778 
	C1121.038208,881.513245 1123.289062,885.580322 1123.008667,890.821411 
	C1122.745728,895.733765 1120.102661,898.856567 1115.269043,899.804382 
	C1113.978394,900.057434 1112.629883,900.069336 1111.306274,900.090454 
	C1108.702271,900.132141 1106.097168,900.102783 1103.019897,900.102783 
	C1103.019897,893.638672 1103.019897,887.708984 1103.090088,881.309448 
z"/>
<path fill="#FC5C5C" opacity="1.000000" stroke="none" 
	d="
M685.190308,896.707397 
	C686.632385,901.150757 687.963013,905.214233 689.436462,909.713745 
	C683.755310,909.713745 678.696838,909.713745 673.148987,909.713745 
	C675.793030,901.682129 678.364075,893.872192 681.316589,884.903503 
	C682.835876,889.516602 683.957397,892.921997 685.190308,896.707397 
z"/>
<path fill="#FC5D5D" opacity="1.000000" stroke="none" 
	d="
M915.095215,1002.310852 
	C917.023987,1002.944763 918.546204,1003.577026 920.068359,1004.209290 
	C919.416748,1005.013367 918.791626,1006.472717 918.108643,1006.500305 
	C915.942871,1006.587891 912.677185,1006.938660 911.791870,1005.741577 
	C909.691223,1002.901062 912.370117,1002.396362 915.095215,1002.310852 
z"/>
<path fill="#FC5D5D" opacity="1.000000" stroke="none" 
	d="
M914.136719,989.039185 
	C913.277710,987.266235 912.819580,985.587952 912.361450,983.909668 
	C913.859192,983.591248 915.433838,982.858521 916.824585,983.116638 
	C917.603516,983.261169 918.821594,985.672180 918.559204,985.984497 
	C917.487488,987.260193 915.921448,988.120544 914.136719,989.039185 
z"/>
<path fill="#FC5D5D" opacity="1.000000" stroke="none" 
	d="
M788.620361,984.316895 
	C792.292603,983.079285 795.072327,984.264648 795.258423,987.567810 
	C795.435486,990.711243 794.891846,994.593811 793.095642,996.960083 
	C791.169189,999.497864 788.105591,997.801147 786.816895,995.044189 
	C785.091919,991.353943 785.225952,987.678833 788.620361,984.316895 
z"/>
<path fill="#FC5D5D" opacity="1.000000" stroke="none" 
	d="
M858.938477,998.236328 
	C857.739563,996.909180 856.954651,995.596558 856.169800,994.283936 
	C858.437134,993.611633 860.704529,992.939270 862.971924,992.266968 
	C863.375183,993.010315 863.778442,993.753662 864.181702,994.497009 
	C862.571960,995.748230 860.962280,996.999512 858.938477,998.236328 
z"/>
<path fill="#FC5D5D" opacity="1.000000" stroke="none" 
	d="
M719.340942,997.837036 
	C717.300232,992.976868 718.479553,992.108398 725.021484,993.186829 
	C724.923828,997.810486 724.731140,997.986267 719.340942,997.837036 
z"/>
<path fill="#FC5D5D" opacity="1.000000" stroke="none" 
	d="
M759.931885,983.987976 
	C764.040894,982.365601 765.645935,984.025696 766.308350,987.995789 
	C763.433105,987.995789 761.033325,987.995789 757.712524,987.995789 
	C758.472351,986.461243 759.034302,985.326477 759.931885,983.987976 
z"/>
</svg>